<svg width="46" height="46" viewBox="0 0 46 46" fill="none" xmlns="http://www.w3.org/2000/svg">
<path d="M11.2125 32.775C12.8417 31.5292 14.6625 30.5469 16.675 29.8281C18.6875 29.1094 20.7959 28.75 23 28.75C25.2042 28.75 27.3125 29.1094 29.325 29.8281C31.3375 30.5469 33.1584 31.5292 34.7875 32.775C35.9056 31.4653 36.7761 29.9799 37.399 28.3188C38.0219 26.6577 38.3334 24.8847 38.3334 23C38.3334 18.7514 36.84 15.1337 33.8532 12.1469C30.8664 9.16008 27.2487 7.66668 23 7.66668C18.7514 7.66668 15.1337 9.16008 12.1469 12.1469C9.16011 15.1337 7.66671 18.7514 7.66671 23C7.66671 24.8847 7.97817 26.6577 8.60108 28.3188C9.224 29.9799 10.0945 31.4653 11.2125 32.775ZM23 24.9167C21.1153 24.9167 19.5261 24.2698 18.2323 22.9761C16.9386 21.6823 16.2917 20.0931 16.2917 18.2083C16.2917 16.3236 16.9386 14.7344 18.2323 13.4406C19.5261 12.1469 21.1153 11.5 23 11.5C24.8848 11.5 26.474 12.1469 27.7677 13.4406C29.0615 14.7344 29.7084 16.3236 29.7084 18.2083C29.7084 20.0931 29.0615 21.6823 27.7677 22.9761C26.474 24.2698 24.8848 24.9167 23 24.9167ZM23 42.1667C20.3487 42.1667 17.857 41.6636 15.525 40.6573C13.1931 39.6511 11.1646 38.2854 9.43962 36.5604C7.71462 34.8354 6.349 32.807 5.34275 30.475C4.3365 28.1431 3.83337 25.6514 3.83337 23C3.83337 20.3486 4.3365 17.857 5.34275 15.525C6.349 13.1931 7.71462 11.1646 9.43962 9.43959C11.1646 7.71459 13.1931 6.34897 15.525 5.34272C17.857 4.33647 20.3487 3.83334 23 3.83334C25.6514 3.83334 28.1431 4.33647 30.475 5.34272C32.807 6.34897 34.8355 7.71459 36.5605 9.43959C38.2855 11.1646 39.6511 13.1931 40.6573 15.525C41.6636 17.857 42.1667 20.3486 42.1667 23C42.1667 25.6514 41.6636 28.1431 40.6573 30.475C39.6511 32.807 38.2855 34.8354 36.5605 36.5604C34.8355 38.2854 32.807 39.6511 30.475 40.6573C28.1431 41.6636 25.6514 42.1667 23 42.1667Z" fill="#F5F5F5"/>
</svg>
