<svg width="20" height="19" viewBox="0 0 20 19" fill="none" xmlns="http://www.w3.org/2000/svg">
<path d="M13.1667 3.16667H14.7501C15.17 3.16667 15.5727 3.33348 15.8697 3.63041C16.1666 3.92735 16.3334 4.33007 16.3334 4.75V15.8333C16.3334 16.2533 16.1666 16.656 15.8697 16.9529C15.5727 17.2499 15.17 17.4167 14.7501 17.4167H5.25008C4.83016 17.4167 4.42743 17.2499 4.1305 16.9529C3.83356 16.656 3.66675 16.2533 3.66675 15.8333V4.75C3.66675 4.33007 3.83356 3.92735 4.1305 3.63041C4.42743 3.33348 4.83016 3.16667 5.25008 3.16667H6.83342M7.62508 1.58333H12.3751C12.8123 1.58333 13.1667 1.93777 13.1667 2.375V3.95833C13.1667 4.39556 12.8123 4.75 12.3751 4.75H7.62508C7.18786 4.75 6.83341 4.39556 6.83341 3.95833V2.375C6.83341 1.93777 7.18786 1.58333 7.62508 1.58333Z" stroke="#F3F3F3" stroke-linecap="round" stroke-linejoin="round"/>
</svg>
