<svg width="46" height="46" viewBox="0 0 46 46" fill="none" xmlns="http://www.w3.org/2000/svg">
<path d="M11.2127 32.7749C12.8418 31.5291 14.6627 30.5468 16.6752 29.828C18.6877 29.1093 20.796 28.7499 23.0002 28.7499C25.2043 28.7499 27.3127 29.1093 29.3252 29.828C31.3377 30.5468 33.1585 31.5291 34.7877 32.7749C35.9057 31.4652 36.7762 29.9798 37.3991 28.3187C38.022 26.6576 38.3335 24.8846 38.3335 22.9999C38.3335 18.7513 36.8401 15.1336 33.8533 12.1468C30.8665 9.15999 27.2488 7.66659 23.0002 7.66659C18.7516 7.66659 15.1338 9.15999 12.147 12.1468C9.16023 15.1336 7.66683 18.7513 7.66683 22.9999C7.66683 24.8846 7.97829 26.6576 8.6012 28.3187C9.22412 29.9798 10.0946 31.4652 11.2127 32.7749ZM23.0002 24.9166C21.1154 24.9166 19.5262 24.2697 18.2325 22.976C16.9387 21.6822 16.2918 20.093 16.2918 18.2083C16.2918 16.3235 16.9387 14.7343 18.2325 13.4405C19.5262 12.1468 21.1154 11.4999 23.0002 11.4999C24.8849 11.4999 26.4741 12.1468 27.7679 13.4405C29.0616 14.7343 29.7085 16.3235 29.7085 18.2083C29.7085 20.093 29.0616 21.6822 27.7679 22.976C26.4741 24.2697 24.8849 24.9166 23.0002 24.9166ZM23.0002 42.1666C20.3488 42.1666 17.8571 41.6635 15.5252 40.6572C13.1932 39.651 11.1647 38.2853 9.43975 36.5603C7.71475 34.8353 6.34912 32.8069 5.34287 30.4749C4.33662 28.143 3.8335 25.6513 3.8335 22.9999C3.8335 20.3485 4.33662 17.8569 5.34287 15.5249C6.34912 13.193 7.71475 11.1645 9.43975 9.4395C11.1647 7.7145 13.1932 6.34888 15.5252 5.34263C17.8571 4.33638 20.3488 3.83325 23.0002 3.83325C25.6516 3.83325 28.1432 4.33638 30.4752 5.34263C32.8071 6.34888 34.8356 7.7145 36.5606 9.4395C38.2856 11.1645 39.6512 13.193 40.6575 15.5249C41.6637 17.8569 42.1668 20.3485 42.1668 22.9999C42.1668 25.6513 41.6637 28.143 40.6575 30.4749C39.6512 32.8069 38.2856 34.8353 36.5606 36.5603C34.8356 38.2853 32.8071 39.651 30.4752 40.6572C28.1432 41.6635 25.6516 42.1666 23.0002 42.1666Z" fill="#F5F5F5"/>
</svg>
