<svg width="46" height="46" viewBox="0 0 46 46" fill="none" xmlns="http://www.w3.org/2000/svg">
<path d="M11.2125 32.775C12.8416 31.5291 14.6625 30.5469 16.675 29.8281C18.6875 29.1094 20.7958 28.75 23 28.75C25.2041 28.75 27.3125 29.1094 29.325 29.8281C31.3375 30.5469 33.1583 31.5291 34.7875 32.775C35.9055 31.4653 36.776 29.9798 37.3989 28.3187C38.0219 26.6576 38.3333 24.8847 38.3333 23C38.3333 18.7514 36.8399 15.1337 33.8531 12.1469C30.8663 9.16005 27.2486 7.66665 23 7.66665C18.7514 7.66665 15.1337 9.16005 12.1469 12.1469C9.16005 15.1337 7.66665 18.7514 7.66665 23C7.66665 24.8847 7.9781 26.6576 8.60102 28.3187C9.22394 29.9798 10.0944 31.4653 11.2125 32.775ZM23 24.9166C21.1153 24.9166 19.526 24.2698 18.2323 22.976C16.9385 21.6823 16.2916 20.093 16.2916 18.2083C16.2916 16.3236 16.9385 14.7344 18.2323 13.4406C19.526 12.1469 21.1153 11.5 23 11.5C24.8847 11.5 26.4739 12.1469 27.7677 13.4406C29.0614 14.7344 29.7083 16.3236 29.7083 18.2083C29.7083 20.093 29.0614 21.6823 27.7677 22.976C26.4739 24.2698 24.8847 24.9166 23 24.9166ZM23 42.1666C20.3486 42.1666 17.8569 41.6635 15.525 40.6573C13.193 39.651 11.1646 38.2854 9.43956 36.5604C7.71456 34.8354 6.34894 32.8069 5.34269 30.475C4.33644 28.143 3.83331 25.6514 3.83331 23C3.83331 20.3486 4.33644 17.8569 5.34269 15.525C6.34894 13.193 7.71456 11.1646 9.43956 9.43956C11.1646 7.71456 13.193 6.34894 15.525 5.34269C17.8569 4.33644 20.3486 3.83331 23 3.83331C25.6514 3.83331 28.143 4.33644 30.475 5.34269C32.8069 6.34894 34.8354 7.71456 36.5604 9.43956C38.2854 11.1646 39.651 13.193 40.6573 15.525C41.6635 17.8569 42.1666 20.3486 42.1666 23C42.1666 25.6514 41.6635 28.143 40.6573 30.475C39.651 32.8069 38.2854 34.8354 36.5604 36.5604C34.8354 38.2854 32.8069 39.651 30.475 40.6573C28.143 41.6635 25.6514 42.1666 23 42.1666Z" fill="#F5F5F5"/>
</svg>
